American Pie Collection 1-7 
http://www.imdb.com/title/tt0163651/ 
http://www.imdb.com/title/tt0252866/ 
http://www.imdb.com/title/tt0328828/ 
http://www.imdb.com/title/tt0436058/ 
http://www.imdb.com/title/tt0808146/ 
http://www.imdb.com/title/tt0974959/ 
http://www.imdb.com/title/tt1407050/


Source  :

American pie 1-6 NeRoZ-Unrated.700MB DVDRIP
American Pie The Book of Love DVDRip XviD RUBY (RATED R :p lol)

NOTE THIS IS ONLY DVDRIPS NOT MY USUAL RE-ENCODED BLURAY RIPS..
WHAT DOES THIS MEAN? IT MEANS THE QUALITY IS A LITTLE LOWER THEN USUAL 
BUT STILL GOOD..............

Oh and theres no subs... Yes Yes Im a big jerk! lol


Sample Info from American pie 1 :

ID                               : 1
Format                           : AVC
Format/Info                      : Advanced Video Codec
Format profile                   : Baseline@L2.1
Format settings, CABAC           : No
Format settings, ReFrames        : 3 frames
Codec ID                         : avc1
Codec ID/Info                    : Advanced Video Coding
Duration                         : 1h 34mn
Bit rate mode                    : Variable
Bit rate                         : 400 Kbps
Width                            : 480 pixels
Height                           : 272 pixels
Display aspect ratio             : 16:9
Frame rate mode                  : Variable
Frame rate                       : 23.976 fps
Minimum frame rate               : 11.989 fps
Maximum frame rate               : 23.981 fps
Color space                      : YUV
Chroma subsampling               : 4:2:0
Bit depth                        : 8 bits
Scan type                        : Progressive
Bits/(Pixel*Frame)               : 0.128
Stream size                      : 271 MiB (75%)
Writing library                  : x264 core 79

ID                               : 2
Format                           : AAC
Format/Info                      : Advanced Audio Codec
Format version                   : Version 4
Format profile                   : LC
Format settings, SBR             : No
Codec ID                         : 40
Duration                         : 1h 34mn
Bit rate mode                    : Variable
Bit rate                         : 128 Kbps
Maximum bit rate                 : 210 Kbps
Channel(s)                       : 2 channels
Channel positions                : Front: L R
Sampling rate                    : 48.0 KHz
Stream size                      : 86.7 MiB (24%)

Random Screens : 
http://img291.imageshack.us/img291/8090/vlcsnap00001i.png 
http://img704.imageshack.us/img704/3879/vlcsnap00002p.png 
http://img52.imageshack.us/img52/8112/vlcsnap00003aj.png 
http://img249.imageshack.us/img249/6262/vlcsnap00004qv.png 
http://img249.imageshack.us/img249/5996/vlcsnap00005b.png 
http://img695.imageshack.us/img695/2403/vlcsnap00007e.png 
http://img227.imageshack.us/img227/5291/vlcsnap00008w.png 
http://img692.imageshack.us/img692/1506/vlcsnap00009x.png 
http://img819.imageshack.us/img819/38/vlcsnap00011p.png 
http://img413.imageshack.us/img413/7977/vlcsnap00012r.png 
http://img203.imageshack.us/img203/5263/vlcsnap00013j.png


PLEASE LET THE TORRENT SEED AND SHARE IT WITH ALL YOU KNOW!

Let me know what I can do to be your trusted source of Handheld videos. 
http://thepiratebay.org/user/on.off.on/ -OOO
